<svg width="40" height="40" viewBox="0 0 40 40" fill="none" xmlns="http://www.w3.org/2000/svg">
<rect width="40" height="40" rx="20" fill="#006AFF"/>
<path fill-rule="evenodd" clip-rule="evenodd" d="M30.9095 25.4669L30.5375 26.1489C29.4197 25.7686 28.1458 26.1699 27.4774 27.206C27.2731 27.5203 27.1485 27.8607 27.0909 28.2075H27.0898L26.1428 28.1928C26.0233 27.4909 25.6294 26.8393 24.9841 26.4224C24.3042 25.9834 23.5017 25.908 22.783 26.128L22.3975 25.4271C22.9224 24.9452 23.2566 24.2601 23.2566 23.4922C23.2566 22.6949 22.8962 21.9888 22.3357 21.5059L22.7841 20.7254C23.047 20.8144 23.3246 20.8731 23.6169 20.8731C24.8877 20.8731 25.9479 19.9732 26.1962 18.7768C26.4769 18.7757 26.7745 18.7737 27.0615 18.7726C27.3077 19.9711 28.369 20.8731 29.6418 20.8731C29.9551 20.8731 30.2505 20.8092 30.5292 20.7086L30.966 21.4702C30.3814 21.9532 30.0022 22.675 30.0022 23.4922C30.0022 24.2831 30.3584 24.984 30.9095 25.4669ZM32.9418 24.9117C33.0382 25.2647 32.9115 25.5539 32.8528 25.6628L31.8136 27.5349C31.7633 27.6282 31.6973 27.7141 31.6166 27.7885C31.406 27.9812 31.1672 28.0315 31.0739 28.0441C30.9472 28.0619 30.8298 28.0514 30.7408 28.0336L29.9194 27.8167C29.8723 27.8126 29.8503 27.8209 29.8367 27.8272L29.6544 27.9362L28.8425 28.4453L28.7985 28.5166L28.6466 29.1682C28.6372 29.2562 28.5743 29.5118 28.348 29.7255C28.0851 29.9738 27.7739 30 27.6524 30L25.5006 29.9623C25.3948 29.9612 25.2889 29.9424 25.1863 29.9068C24.9265 29.8167 24.7735 29.6438 24.7054 29.5485C24.6415 29.4615 24.5902 29.3599 24.5577 29.2478L24.3628 28.4212C24.3461 28.3825 24.3293 28.3657 24.3157 28.3552L23.7678 27.9833L23.5164 27.8534L23.5122 27.8545L23.4273 27.8524L22.7883 28.0483C22.7537 28.0682 22.4174 28.1499 22.1544 28.0703C21.8035 27.9666 21.6233 27.7047 21.5625 27.5967L20.5191 25.7288C20.4688 25.6408 20.429 25.534 20.4091 25.4261C20.3588 25.161 20.429 24.9431 20.4751 24.8363C20.5223 24.7304 20.5851 24.6372 20.6616 24.5544L21.2807 23.9699C21.3059 23.9374 21.3111 23.9112 21.3143 23.8944L21.3195 23.8043L21.2713 22.9264L21.2304 22.8531L20.736 22.4037C20.583 22.2905 20.45 22.0915 20.3944 21.8694C20.3033 21.51 20.4384 21.224 20.5002 21.1172L21.5751 19.2681C21.6296 19.1749 21.6977 19.09 21.7794 19.0188C21.9826 18.8386 22.2068 18.7883 22.3231 18.7757C22.4195 18.7621 22.5515 18.7674 22.6636 18.7936L23.4755 19.0272C23.5258 19.0293 23.5446 19.023 23.5572 19.0167L24.1481 18.7202L24.3838 18.561L24.4278 18.4887L24.5682 17.8339C24.5902 17.6443 24.6939 17.4295 24.8584 17.2703C25.1234 17.0115 25.4388 16.9843 25.5624 16.9843H27.7037C27.8106 16.9843 27.9164 17 28.017 17.0335C28.2757 17.1195 28.4318 17.2881 28.502 17.3814C28.5712 17.4725 28.6225 17.5741 28.6581 17.6831L28.8655 18.5044C28.8813 18.5432 28.9012 18.561 28.9148 18.5704L29.2731 18.8051L29.8178 19.0439L30.4537 18.8156C30.5271 18.7778 30.8351 18.7077 31.0886 18.7768C31.3337 18.8417 31.5548 19.0062 31.691 19.2294L32.7878 21.0711C32.8434 21.1633 32.8842 21.2639 32.9062 21.3697C32.9659 21.6368 32.8999 21.8568 32.8559 21.9637C32.8119 22.0705 32.7512 22.168 32.6747 22.2528L32.0765 22.85C32.0535 22.8845 32.0482 22.9086 32.0461 22.9254L32.0199 23.5864L32.0451 23.8714L32.0859 23.9447L32.5898 24.3837C32.6653 24.4361 32.8601 24.6121 32.9418 24.9117ZM20.5238 11.2624C22.1319 12.7793 21.9496 14.9982 21.9193 15.3073C21.7569 16.9688 20.8035 18.0353 20.3593 18.5172C19.7549 19.1751 18.7219 20.2971 17.2049 20.3055H17.1892C15.6587 20.3055 14.6068 19.1657 14.0086 18.5172C13.5686 18.0405 12.6111 16.973 12.4477 15.3073C12.4183 14.9982 12.2371 12.7793 13.8431 11.2624C14.7346 10.4201 15.9593 10 17.184 10C18.4087 10 19.6333 10.4201 20.5238 11.2624ZM20.1467 15.1334C20.1634 14.9668 20.2787 13.4792 19.3012 12.5573C18.7785 12.0628 18.0074 11.7799 17.184 11.7799C16.3606 11.7799 15.5885 12.0628 15.0657 12.5573C14.0904 13.4792 14.2045 14.9668 14.2213 15.1334C14.3282 16.2386 14.9966 16.9625 15.3171 17.3093C15.908 17.9494 16.4957 18.5235 17.1892 18.5235C17.9372 18.5193 18.5794 17.8216 19.0488 17.3114C19.3704 16.9625 20.0388 16.2355 20.1467 15.1334ZM19.3436 28.2189C19.8328 28.2189 20.234 28.6212 20.234 29.1094C20.234 29.5976 19.8328 29.9988 19.3446 29.9999C15.4799 29.9999 11.6142 29.9988 7.74845 29.9988C7.71179 29.9988 7.34407 29.9905 7.14083 29.6908C7.02454 29.5201 7.0214 29.343 7.0235 29.2707C7.12302 28.375 7.48864 26.152 9.2057 24.0253C10.8138 22.0348 12.7582 21.1778 13.7461 20.8332C13.81 20.8112 13.8729 20.7997 13.9368 20.7997C14.0426 20.7997 14.1473 20.8311 14.2406 20.8929C14.7382 21.225 15.7376 21.7666 17.0954 21.7897C17.1383 21.7907 17.1834 21.7907 17.1834 21.7907C17.3971 21.7907 17.5794 21.776 17.725 21.7582C18.21 21.6975 18.6595 22.0463 18.7202 22.5314C18.7799 23.0039 18.4468 23.4376 17.9796 23.5151C17.7218 23.5444 17.462 23.5717 17.1834 23.5717L17.0629 23.5706C15.7094 23.5476 14.6093 23.1442 13.8163 22.7147C12.8451 23.1275 11.6289 23.8598 10.5917 25.1442C9.73265 26.2075 9.27589 27.319 9.03284 28.2189H19.3436ZM26.6709 22.0616C25.925 22.0616 25.3205 22.6661 25.3205 23.412C25.3205 24.1569 25.925 24.7614 26.6709 24.7614C27.4157 24.7614 28.0202 24.1569 28.0202 23.412C28.0202 22.6661 27.4157 22.0616 26.6709 22.0616Z" fill="white"/>
</svg>
