<svg width="40" height="40" viewBox="0 0 40 40" fill="none" xmlns="http://www.w3.org/2000/svg">
<rect y="0.000244141" width="40" height="40" rx="20" fill="#006AFF"/>
<path d="M22 21.9002H21.9V22.0002V28.0002C21.9 29.0495 21.0493 29.9002 20 29.9002C18.9507 29.9002 18.1 29.0495 18.1 28.0002V22.0002V21.9002H18H12C10.9507 21.9002 10.1 21.0495 10.1 20.0002C10.1 18.951 10.9507 18.1002 12 18.1002H18H18.1V18.0002V12.0002C18.1 10.951 18.9507 10.1002 20 10.1002C21.0493 10.1002 21.9 10.951 21.9 12.0002V18.0002V18.1002H22H28C29.0493 18.1002 29.9 18.951 29.9 20.0002C29.9 21.0495 29.0493 21.9002 28 21.9002H22Z" fill="white" stroke="#006AFF" stroke-width="0.2"/>
</svg>
