<svg width="40" height="40" viewBox="0 0 40 40" fill="none" xmlns="http://www.w3.org/2000/svg">
<rect width="40" height="40" rx="20" fill="#006AFF"/>
<path d="M14.06 30H22.5C23.2956 30 24.0587 29.6839 24.6213 29.1213C25.1839 28.5587 25.5 27.7956 25.5 27V25.25C25.5 24.9848 25.3946 24.7304 25.2071 24.5429C25.0196 24.3554 24.7652 24.25 24.5 24.25C24.2348 24.25 23.9804 24.3554 23.7929 24.5429C23.6054 24.7304 23.5 24.9848 23.5 25.25V27C23.5 27.2652 23.3946 27.5196 23.2071 27.7071C23.0196 27.8946 22.7652 28 22.5 28H14.06C13.7948 28 13.5404 27.8946 13.3529 27.7071C13.1654 27.5196 13.06 27.2652 13.06 27V13C13.06 12.7348 13.1654 12.4804 13.3529 12.2929C13.5404 12.1054 13.7948 12 14.06 12H22.5C22.7652 12 23.0196 12.1054 23.2071 12.2929C23.3946 12.4804 23.5 12.7348 23.5 13V14.75C23.5 15.0152 23.6054 15.2696 23.7929 15.4571C23.9804 15.6446 24.2348 15.75 24.5 15.75C24.7652 15.75 25.0196 15.6446 25.2071 15.4571C25.3946 15.2696 25.5 15.0152 25.5 14.75V13C25.5 12.2044 25.1839 11.4413 24.6213 10.8787C24.0587 10.3161 23.2956 10 22.5 10H14.06C13.2643 10 12.5013 10.3161 11.9387 10.8787C11.3761 11.4413 11.06 12.2044 11.06 13V27C11.06 27.7956 11.3761 28.5587 11.9387 29.1213C12.5013 29.6839 13.2643 30 14.06 30Z" fill="white"/>
<path d="M27.94 18.9999H18.75L21.095 16.6874C21.284 16.5011 21.3912 16.2474 21.3931 15.982C21.395 15.7167 21.2913 15.4614 21.105 15.2724C20.9187 15.0835 20.665 14.9763 20.3996 14.9744C20.1342 14.9725 19.879 15.0761 19.69 15.2624L15.6075 19.2874C15.513 19.3805 15.438 19.4914 15.3868 19.6137C15.3356 19.7361 15.3092 19.8673 15.3092 19.9999C15.3092 20.1326 15.3356 20.2638 15.3868 20.3862C15.438 20.5085 15.513 20.6194 15.6075 20.7124L19.69 24.7374C19.7836 24.8297 19.8944 24.9026 20.0162 24.952C20.1379 25.0015 20.2682 25.0264 20.3996 25.0255C20.531 25.0246 20.6609 24.9978 20.782 24.9466C20.903 24.8955 21.0128 24.821 21.105 24.7274C21.1973 24.6339 21.2702 24.5231 21.3196 24.4013C21.3691 24.2796 21.394 24.1493 21.3931 24.0179C21.3922 23.8865 21.3654 23.7566 21.3142 23.6355C21.2631 23.5145 21.1886 23.4047 21.095 23.3124L18.75 20.9999H27.94C28.2052 20.9999 28.4596 20.8946 28.6471 20.7071C28.8347 20.5195 28.94 20.2652 28.94 19.9999C28.94 19.7347 28.8347 19.4804 28.6471 19.2928C28.4596 19.1053 28.2052 18.9999 27.94 18.9999Z" fill="white"/>
</svg>
