<svg width="40" height="40" viewBox="0 0 40 40" fill="none" xmlns="http://www.w3.org/2000/svg">
<rect width="40" height="40" rx="20" fill="#006AFF"/>
<path d="M12.06 30H20.5C21.2956 30 22.0587 29.6839 22.6213 29.1213C23.1839 28.5587 23.5 27.7956 23.5 27V25.25C23.5 24.9848 23.3946 24.7304 23.2071 24.5429C23.0196 24.3554 22.7652 24.25 22.5 24.25C22.2348 24.25 21.9804 24.3554 21.7929 24.5429C21.6054 24.7304 21.5 24.9848 21.5 25.25V27C21.5 27.2652 21.3946 27.5196 21.2071 27.7071C21.0196 27.8946 20.7652 28 20.5 28H12.06C11.7948 28 11.5404 27.8946 11.3529 27.7071C11.1654 27.5196 11.06 27.2652 11.06 27V13C11.06 12.7348 11.1654 12.4804 11.3529 12.2929C11.5404 12.1054 11.7948 12 12.06 12H20.5C20.7652 12 21.0196 12.1054 21.2071 12.2929C21.3946 12.4804 21.5 12.7348 21.5 13V14.75C21.5 15.0152 21.6054 15.2696 21.7929 15.4571C21.9804 15.6446 22.2348 15.75 22.5 15.75C22.7652 15.75 23.0196 15.6446 23.2071 15.4571C23.3946 15.2696 23.5 15.0152 23.5 14.75V13C23.5 12.2044 23.1839 11.4413 22.6213 10.8787C22.0587 10.3161 21.2956 10 20.5 10H12.06C11.2643 10 10.5013 10.3161 9.93868 10.8787C9.37607 11.4413 9.06 12.2044 9.06 13V27C9.06 27.7956 9.37607 28.5587 9.93868 29.1213C10.5013 29.6839 11.2643 30 12.06 30Z" fill="white"/>
<path d="M18.3092 21.0001L27.4992 21.0001L25.1542 23.3126C24.9652 23.4989 24.858 23.7526 24.8561 24.018C24.8542 24.2833 24.9579 24.5386 25.1442 24.7276C25.3305 24.9165 25.5842 25.0237 25.8496 25.0256C26.115 25.0275 26.3702 24.9239 26.5592 24.7376L30.6417 20.7126C30.7362 20.6195 30.8112 20.5086 30.8624 20.3863C30.9136 20.2639 30.94 20.1327 30.94 20.0001C30.94 19.8674 30.9136 19.7362 30.8624 19.6138C30.8112 19.4915 30.7362 19.3806 30.6417 19.2876L26.5592 15.2626C26.4656 15.1703 26.3548 15.0974 26.233 15.048C26.1113 14.9985 25.981 14.9736 25.8496 14.9745C25.7182 14.9754 25.5883 15.0022 25.4672 15.0534C25.3462 15.1045 25.2364 15.179 25.1442 15.2726C25.0519 15.3661 24.979 15.4769 24.9296 15.5987C24.8802 15.7204 24.8552 15.8507 24.8561 15.9821C24.857 16.1135 24.8838 16.2434 24.935 16.3645C24.9861 16.4855 25.0606 16.5953 25.1542 16.6876L27.4992 19.0001L18.3092 19.0001C18.044 19.0001 17.7896 19.1054 17.6021 19.2929C17.4145 19.4805 17.3092 19.7348 17.3092 20.0001C17.3092 20.2653 17.4145 20.5196 17.6021 20.7072C17.7896 20.8947 18.044 21.0001 18.3092 21.0001Z" fill="white"/>
</svg>
