<svg width="25" height="22" viewBox="0 0 25 22" fill="none" xmlns="http://www.w3.org/2000/svg">
<path d="M23.2984 18.1976V18.3476H23.3207C23.2451 19.134 22.5806 19.7291 21.7965 19.7291H3.80236C2.94296 19.7291 2.27094 19.031 2.27094 18.1976V7.0472C2.27094 6.1878 2.96903 5.51578 3.80236 5.51578H8.58112H16.9882H21.767C22.6264 5.51578 23.2984 6.21387 23.2984 7.0472V18.1976ZM21.7965 4.09484H17.7282V2.68142C17.7282 1.65291 16.8923 0.85 15.8968 0.85H9.73156C8.70306 0.85 7.90015 1.68584 7.90015 2.68142V4.09484H3.80236C2.15507 4.09484 0.85 5.43146 0.85 7.0472V18.1976C0.85 19.8449 2.18662 21.15 3.80236 21.15H21.7965C23.4438 21.15 24.7488 19.8134 24.7488 18.1976V7.0472C24.7488 5.39991 23.4122 4.09484 21.7965 4.09484ZM9.29159 2.68142C9.29159 2.44487 9.48473 2.27094 9.70206 2.27094H15.8673C16.1038 2.27094 16.2777 2.46408 16.2777 2.68142V4.09484H9.29159V2.68142Z" fill="#A8A8BD" stroke="#A8A8BD" stroke-width="0.3"/>
<path d="M17.0176 10.4665H14.9552V8.4041C14.9552 7.99168 14.6174 7.69363 14.2447 7.69363H11.3834C10.971 7.69363 10.6729 8.03146 10.6729 8.4041V10.4665H8.61052C8.1981 10.4665 7.90005 10.8043 7.90005 11.177V14.0383C7.90005 14.4507 8.23788 14.7488 8.61052 14.7488H10.6729V16.8112C10.6729 17.2236 11.0107 17.5217 11.3834 17.5217H14.2447C14.6572 17.5217 14.9552 17.1838 14.9552 16.8112V14.7488H17.0176C17.43 14.7488 17.7281 14.411 17.7281 14.0383V11.177C17.7281 10.7991 17.3954 10.4665 17.0176 10.4665ZM16.3071 13.3278H14.2447C13.8323 13.3278 13.5343 13.6657 13.5343 14.0383V16.1007H12.0939V14.0383C12.0939 13.6259 11.756 13.3278 11.3834 13.3278H9.32099V11.8874H11.3834C11.7958 11.8874 12.0939 11.5496 12.0939 11.177V9.11457H13.5343V11.177C13.5343 11.5894 13.8721 11.8874 14.2447 11.8874H16.3071V13.3278Z" fill="#A8A8BD" stroke="#A8A8BD" stroke-width="0.3"/>
</svg>
