<svg width="20" height="20" viewBox="0 0 20 20" fill="none" xmlns="http://www.w3.org/2000/svg">
<path d="M9.7796 12.261C10.5648 11.601 11.128 10.7154 11.3929 9.72449C11.6577 8.73354 11.6114 7.68511 11.2601 6.72138C10.9089 5.75765 10.2698 4.92526 9.42942 4.3371C8.58906 3.74894 7.58815 3.43347 6.56241 3.43347C5.53667 3.43347 4.53575 3.74894 3.6954 4.3371C2.85504 4.92526 2.2159 5.75765 1.86467 6.72138C1.51344 7.68511 1.46711 8.73354 1.73196 9.72449C1.99681 10.7154 2.56002 11.601 3.34522 12.261C2.11911 12.8154 1.05656 13.6764 0.260065 14.761C0.112952 14.9614 0.0515003 15.2121 0.0892274 15.4579C0.126954 15.7037 0.26077 15.9244 0.461236 16.0715C0.661703 16.2186 0.912399 16.2801 1.15817 16.2423C1.40395 16.2046 1.62467 16.0708 1.77178 15.8703C2.32314 15.1173 3.04425 14.5049 3.87661 14.0827C4.70896 13.6605 5.62911 13.4405 6.56241 13.4405C7.49571 13.4405 8.41586 13.6605 9.24821 14.0827C10.0806 14.5049 10.8017 15.1173 11.353 15.8703C11.5001 16.0709 11.7209 16.2048 11.9668 16.2426C12.2126 16.2804 12.4634 16.219 12.664 16.0719C12.8645 15.9248 12.9985 15.704 13.0363 15.4582C13.0741 15.2123 13.0126 14.9615 12.8655 14.761C12.0686 13.6765 11.0058 12.8156 9.7796 12.261ZM3.43741 8.43753C3.43741 7.81946 3.62069 7.21527 3.96407 6.70137C4.30745 6.18747 4.7955 5.78693 5.36652 5.5504C5.93754 5.31388 6.56588 5.25199 7.17207 5.37257C7.77826 5.49315 8.33508 5.79078 8.77212 6.22782C9.20916 6.66486 9.50679 7.22168 9.62736 7.82787C9.74794 8.43406 9.68606 9.06239 9.44953 9.63341C9.21301 10.2044 8.81247 10.6925 8.29857 11.0359C7.78466 11.3792 7.18048 11.5625 6.56241 11.5625C5.73361 11.5625 4.93875 11.2333 4.3527 10.6472C3.76665 10.0612 3.43741 9.26633 3.43741 8.43753ZM19.539 16.068C19.4397 16.1409 19.3271 16.1936 19.2075 16.223C19.0879 16.2523 18.9636 16.2579 18.8419 16.2392C18.7202 16.2206 18.6033 16.1781 18.498 16.1143C18.3926 16.0505 18.3009 15.9665 18.228 15.8672C17.6753 15.1156 16.9539 14.5043 16.1219 14.0823C15.2898 13.6603 14.3703 13.4394 13.4374 13.4375C13.1888 13.4375 12.9503 13.3388 12.7745 13.1629C12.5987 12.9871 12.4999 12.7487 12.4999 12.5C12.4999 12.2514 12.5987 12.0129 12.7745 11.8371C12.9503 11.6613 13.1888 11.5625 13.4374 11.5625C13.8975 11.562 14.3519 11.4598 14.7679 11.2634C15.184 11.0669 15.5516 10.781 15.8444 10.4261C16.1372 10.0712 16.348 9.65593 16.4617 9.21008C16.5755 8.76424 16.5894 8.29877 16.5024 7.84694C16.4155 7.3951 16.2298 6.96805 15.9587 6.59627C15.6876 6.2245 15.3377 5.91718 14.9341 5.69626C14.5305 5.47535 14.083 5.34629 13.6238 5.31831C13.1645 5.29033 12.7047 5.36412 12.2773 5.5344C12.1627 5.58129 12.0401 5.60504 11.9164 5.6043C11.7926 5.60355 11.6703 5.57832 11.5564 5.53006C11.4424 5.4818 11.3392 5.41147 11.2525 5.32311C11.1659 5.23476 11.0977 5.13013 11.0517 5.01526C11.0057 4.90039 10.9829 4.77756 10.9846 4.65384C10.9863 4.53012 11.0125 4.40797 11.0616 4.29442C11.1108 4.18086 11.1819 4.07817 11.271 3.99224C11.36 3.90632 11.4652 3.83887 11.5804 3.79378C12.6837 3.35202 13.9084 3.31774 15.0348 3.6971C16.1611 4.07645 17.1155 4.84463 17.7268 5.8639C18.3381 6.88316 18.5663 8.08685 18.3705 9.25913C18.1748 10.4314 17.5678 11.4956 16.6585 12.261C17.8846 12.8154 18.9472 13.6764 19.7437 14.761C19.8893 14.9616 19.9495 15.2118 19.9112 15.4567C19.8728 15.7017 19.739 15.9215 19.539 16.068Z" fill="#A8A8BD"/>
</svg>
