<svg width="15" height="15" viewBox="0 0 15 15" fill="none" xmlns="http://www.w3.org/2000/svg">
<path d="M5.60938 0.511353H2.17188C1.75747 0.511353 1.36005 0.675973 1.06702 0.968998C0.773995 1.26202 0.609375 1.65945 0.609375 2.07385V5.51135C0.609375 5.92575 0.773995 6.32318 1.06702 6.61621C1.36005 6.90923 1.75747 7.07385 2.17188 7.07385H5.60938C6.02378 7.07385 6.4212 6.90923 6.71423 6.61621C7.00726 6.32318 7.17188 5.92575 7.17188 5.51135V2.07385C7.17188 1.65945 7.00726 1.26202 6.71423 0.968998C6.4212 0.675973 6.02378 0.511353 5.60938 0.511353ZM5.29688 5.19885H2.48438V2.38635H5.29688V5.19885ZM13.4219 0.511353H9.98438C9.56997 0.511353 9.17255 0.675973 8.87952 0.968998C8.58649 1.26202 8.42188 1.65945 8.42188 2.07385V5.51135C8.42188 5.92575 8.58649 6.32318 8.87952 6.61621C9.17255 6.90923 9.56997 7.07385 9.98438 7.07385H13.4219C13.8363 7.07385 14.2337 6.90923 14.5267 6.61621C14.8198 6.32318 14.9844 5.92575 14.9844 5.51135V2.07385C14.9844 1.65945 14.8198 1.26202 14.5267 0.968998C14.2337 0.675973 13.8363 0.511353 13.4219 0.511353ZM13.1094 5.19885H10.2969V2.38635H13.1094V5.19885ZM5.60938 8.32385H2.17188C1.75747 8.32385 1.36005 8.48847 1.06702 8.7815C0.773995 9.07452 0.609375 9.47195 0.609375 9.88635V13.3239C0.609375 13.7383 0.773995 14.1357 1.06702 14.4287C1.36005 14.7217 1.75747 14.8864 2.17188 14.8864H5.60938C6.02378 14.8864 6.4212 14.7217 6.71423 14.4287C7.00726 14.1357 7.17188 13.7383 7.17188 13.3239V9.88635C7.17188 9.47195 7.00726 9.07452 6.71423 8.7815C6.4212 8.48847 6.02378 8.32385 5.60938 8.32385ZM5.29688 13.0114H2.48438V10.1989H5.29688V13.0114ZM13.4219 8.32385H9.98438C9.56997 8.32385 9.17255 8.48847 8.87952 8.7815C8.58649 9.07452 8.42188 9.47195 8.42188 9.88635V13.3239C8.42188 13.7383 8.58649 14.1357 8.87952 14.4287C9.17255 14.7217 9.56997 14.8864 9.98438 14.8864H13.4219C13.8363 14.8864 14.2337 14.7217 14.5267 14.4287C14.8198 14.1357 14.9844 13.7383 14.9844 13.3239V9.88635C14.9844 9.47195 14.8198 9.07452 14.5267 8.7815C14.2337 8.48847 13.8363 8.32385 13.4219 8.32385ZM13.1094 13.0114H10.2969V10.1989H13.1094V13.0114Z" fill="#A8A8BD"/>
</svg>
