<svg width="22" height="22" viewBox="0 0 22 22" fill="none" xmlns="http://www.w3.org/2000/svg">
<path d="M12.4314 0.9058L12.4314 0.905808C12.5524 0.892615 12.6753 0.901946 12.7922 0.933317C12.909 0.964687 13.0176 1.01755 13.1105 1.08905C13.2034 1.16057 13.2787 1.24933 13.3303 1.35001C13.382 1.4506 13.4086 1.56034 13.4076 1.67173M12.4314 0.9058L13.3076 1.6714M12.4314 0.9058L12.4302 0.905951M12.4314 0.9058L12.4302 0.905951M13.4076 1.67173C13.4076 1.67191 13.4076 1.6721 13.4076 1.67229L13.3076 1.6714M13.4076 1.67173V1.6714H13.3076M13.4076 1.67173V7.39828M13.3076 1.6714V7.46574M13.4076 7.39828L13.3451 7.37302L13.3076 7.46574M13.4076 7.39828L20.5967 10.3014L20.5971 10.3016C20.7449 10.3621 20.8718 10.4586 20.9617 10.5816C21.0516 10.7048 21.1003 10.8493 21.0999 10.9981M13.4076 7.39828V7.46574H13.3076M13.3076 7.46574L21.0999 10.9981M21.0999 10.9981L20.9999 10.9979H21.0999V10.9981ZM12.4302 0.905951C12.3273 0.91847 12.2275 0.947146 12.1357 0.990877L1.36734 5.87578L1.36689 5.87598M12.4302 0.905951L1.36689 5.87598M1.36689 5.87598C1.22827 5.9397 1.11041 6.03584 1.02743 6.15561M1.36689 5.87598L1.02743 6.15561M1.02743 6.15561C0.944343 6.27554 0.899694 6.41429 0.900002 6.5568M1.02743 6.15561L0.900002 6.5568M0.900002 6.5568V20.3243C0.900026 20.5326 0.995664 20.7288 1.15986 20.871C1.3236 21.0128 1.54297 21.0905 1.76922 21.0905H17.666H17.6666V20.9905C17.7685 20.9918 17.8697 20.9755 17.9643 20.9425C18.0589 20.9096 18.145 20.8607 18.2176 20.7988C18.2902 20.7368 18.3478 20.6629 18.3872 20.5815C18.4265 20.5 18.4468 20.4126 18.4468 20.3243C18.4468 20.2361 18.4265 20.1486 18.3872 20.0672C18.3478 19.9858 18.2902 19.9119 18.2176 19.8499C18.145 19.7879 18.0589 19.7391 17.9643 19.7061C17.8697 19.6732 17.7685 19.6569 17.6666 19.6582M0.900002 6.5568L21.0999 20.3236C21.1015 20.427 21.0793 20.5292 21.0352 20.6243C20.9911 20.7195 20.9259 20.8051 20.8445 20.8767C20.7631 20.9482 20.6668 21.0043 20.5617 21.0424C20.4565 21.0805 20.344 21.1 20.2307 21.1C20.1174 21.1 20.0049 21.0805 19.8997 21.0424C19.7945 21.0043 19.6983 20.9482 19.6169 20.8767C19.5355 20.8051 19.4703 20.7195 19.4262 20.6243C19.3821 20.5292 19.3599 20.427 19.3615 20.3236V11.4886L13.4076 9.08509V19.5582H17.666H17.6666V19.6582M17.6666 19.6582H13.4076H17.6666ZM5.27432 13.3406L5.27431 13.3405L4.58973 14.1067H4.48973V14.107V19.5582H2.63846V7.02363L11.6692 2.92988V7.75427C11.653 7.83888 11.653 7.92532 11.6692 8.00994V19.5582H9.81792V14.1067C9.81789 13.8985 9.72225 13.7023 9.55806 13.5601C9.39431 13.4183 9.17495 13.3405 8.9487 13.3405H5.36115C5.33222 13.3393 5.30324 13.3393 5.27432 13.3406ZM8.94869 6.23463C8.62335 6.23463 8.33587 6.46446 8.33587 6.77875V7.88904C8.33587 8.20333 8.62335 8.43316 8.94869 8.43316H10.2307C10.5561 8.43316 10.8436 8.20333 10.8436 7.88904V6.77875C10.8436 6.46446 10.5561 6.23463 10.2307 6.23463H8.94869ZM4.07691 7.78904C3.75157 7.78904 3.46409 8.01887 3.46409 8.33316V9.44345C3.46409 9.75774 3.75157 9.98757 4.07691 9.98757H5.35896C5.6843 9.98757 5.97178 9.75774 5.97178 9.44345V8.33316C5.97178 8.01887 5.6843 7.78904 5.35896 7.78904H4.07691ZM16.641 12.0082C16.3156 12.0082 16.0281 12.238 16.0281 12.5523V13.6626C16.0281 13.9769 16.3156 14.2067 16.641 14.2067H17.923C18.2484 14.2067 18.5358 13.9769 18.5358 13.6626V12.5523C18.5358 12.238 18.2484 12.0082 17.923 12.0082H16.641ZM6.22819 14.8729H8.07946V19.5582H6.22819V14.8729Z" fill="#A8A8BD" stroke="#A8A8BD" stroke-width="0.2"/>
</svg>
