<svg width="250" height="151" viewBox="0 0 250 151" fill="none" xmlns="http://www.w3.org/2000/svg">
<rect width="250" height="150" transform="translate(0 0.47757)" fill="#E5F0FF"/>
<path d="M63.2799 52.3213V56.4776H62.1177V46.4834H64.859C66.0849 46.4834 66.9895 46.7181 67.5728 47.1875C68.1607 47.6569 68.4547 48.3633 68.4547 49.3067C68.4547 50.6283 67.7847 51.5215 66.4449 51.9864L69.1588 56.4776H67.7847L65.3648 52.3213H63.2799ZM63.2799 51.3233H64.8726C65.6929 51.3233 66.2945 51.1615 66.6773 50.8379C67.0601 50.5098 67.2515 50.0199 67.2515 49.3682C67.2515 48.7074 67.0556 48.2312 66.6636 47.9395C66.2763 47.6478 65.6519 47.502 64.7906 47.502H63.2799V51.3233ZM73.6122 56.6143C72.5048 56.6143 71.6298 56.277 70.9872 55.6026C70.3492 54.9281 70.0302 53.9916 70.0302 52.793C70.0302 51.5853 70.3264 50.626 70.9188 49.9151C71.5158 49.2041 72.3156 48.8487 73.3182 48.8487C74.257 48.8487 74.9999 49.1586 75.5468 49.7784C76.0936 50.3936 76.3671 51.2071 76.3671 52.2188V52.9366H71.2059C71.2287 53.8161 71.4497 54.4838 71.869 54.9395C72.2928 55.3952 72.8876 55.6231 73.6532 55.6231C74.4598 55.6231 75.2574 55.4545 76.0458 55.1172V56.1289C75.6447 56.3021 75.2642 56.4252 74.9042 56.4981C74.5487 56.5756 74.118 56.6143 73.6122 56.6143ZM73.3046 49.7989C72.703 49.7989 72.2222 49.9948 71.8622 50.3867C71.5067 50.7787 71.2971 51.321 71.2333 52.0137H75.1503C75.1503 51.2982 74.9908 50.7513 74.6718 50.3731C74.3527 49.9903 73.897 49.7989 73.3046 49.7989ZM81.1486 56.6143C80.064 56.6143 79.2232 56.2816 78.6262 55.6162C78.0337 54.9463 77.7375 54.0007 77.7375 52.7793C77.7375 51.5261 78.0383 50.5576 78.6398 49.8741C79.2459 49.1905 80.1073 48.8487 81.2238 48.8487C81.5838 48.8487 81.9439 48.8874 82.3039 48.9649C82.6639 49.0423 82.9465 49.1335 83.1515 49.2383L82.8029 50.2022C82.5523 50.1019 82.2788 50.0199 81.9826 49.9561C81.6864 49.8877 81.4243 49.8535 81.1965 49.8535C79.6743 49.8535 78.9133 50.8242 78.9133 52.7657C78.9133 53.6862 79.0978 54.3926 79.467 54.8848C79.8407 55.377 80.3921 55.6231 81.1213 55.6231C81.7456 55.6231 82.3859 55.4886 83.0422 55.2198V56.2246C82.5409 56.4844 81.9097 56.6143 81.1486 56.6143ZM91.1391 52.7246C91.1391 53.946 90.8315 54.9007 90.2163 55.5889C89.6011 56.2725 88.7511 56.6143 87.6665 56.6143C86.9966 56.6143 86.4018 56.4571 85.8823 56.1426C85.3628 55.8282 84.9617 55.377 84.6792 54.7891C84.3966 54.2012 84.2554 53.5131 84.2554 52.7246C84.2554 51.5033 84.5607 50.5531 85.1714 49.8741C85.782 49.1905 86.6297 48.8487 87.7143 48.8487C88.7625 48.8487 89.5942 49.1973 90.2095 49.8946C90.8292 50.5918 91.1391 51.5352 91.1391 52.7246ZM85.4311 52.7246C85.4311 53.6817 85.6225 54.4108 86.0054 54.9121C86.3882 55.4134 86.951 55.6641 87.6938 55.6641C88.4367 55.6641 88.9995 55.4157 89.3823 54.919C89.7697 54.4177 89.9634 53.6862 89.9634 52.7246C89.9634 51.7722 89.7697 51.0498 89.3823 50.5576C88.9995 50.0609 88.4321 49.8125 87.6802 49.8125C86.9373 49.8125 86.3768 50.0563 85.9985 50.544C85.6203 51.0316 85.4311 51.7585 85.4311 52.7246ZM102.531 56.4776V51.6035C102.531 51.0065 102.403 50.5599 102.148 50.2637C101.893 49.9629 101.497 49.8125 100.959 49.8125C100.252 49.8125 99.7306 50.0153 99.3933 50.4209C99.0561 50.8265 98.8875 51.4509 98.8875 52.294V56.4776H97.7527V51.6035C97.7527 51.0065 97.6251 50.5599 97.3699 50.2637C97.1147 49.9629 96.7159 49.8125 96.1736 49.8125C95.4627 49.8125 94.9409 50.0267 94.6082 50.4551C94.2801 50.8789 94.116 51.5762 94.116 52.5469V56.4776H92.9812V48.9854H93.9041L94.0887 50.0108H94.1433C94.3575 49.6462 94.6583 49.3614 95.0457 49.1563C95.4376 48.9512 95.8751 48.8487 96.3582 48.8487C97.5294 48.8487 98.295 49.2725 98.6551 50.1201H98.7098C98.9331 49.7282 99.2566 49.4183 99.6805 49.1905C100.104 48.9626 100.587 48.8487 101.13 48.8487C101.977 48.8487 102.611 49.0674 103.03 49.5049C103.454 49.9379 103.666 50.6328 103.666 51.5899V56.4776H102.531ZM115.406 56.4776V51.6035C115.406 51.0065 115.279 50.5599 115.024 50.2637C114.768 49.9629 114.372 49.8125 113.834 49.8125C113.128 49.8125 112.606 50.0153 112.269 50.4209C111.931 50.8265 111.763 51.4509 111.763 52.294V56.4776H110.628V51.6035C110.628 51.0065 110.5 50.5599 110.245 50.2637C109.99 49.9629 109.591 49.8125 109.049 49.8125C108.338 49.8125 107.816 50.0267 107.483 50.4551C107.155 50.8789 106.991 51.5762 106.991 52.5469V56.4776H105.857V48.9854H106.779L106.964 50.0108H107.019C107.233 49.6462 107.534 49.3614 107.921 49.1563C108.313 48.9512 108.75 48.8487 109.233 48.8487C110.405 48.8487 111.17 49.2725 111.53 50.1201H111.585C111.808 49.7282 112.132 49.4183 112.556 49.1905C112.98 48.9626 113.463 48.8487 114.005 48.8487C114.853 48.8487 115.486 49.0674 115.905 49.5049C116.329 49.9379 116.541 50.6328 116.541 51.5899V56.4776H115.406ZM121.897 56.6143C120.789 56.6143 119.914 56.277 119.272 55.6026C118.634 54.9281 118.315 53.9916 118.315 52.793C118.315 51.5853 118.611 50.626 119.204 49.9151C119.801 49.2041 120.6 48.8487 121.603 48.8487C122.542 48.8487 123.285 49.1586 123.831 49.7784C124.378 50.3936 124.652 51.2071 124.652 52.2188V52.9366H119.491C119.513 53.8161 119.734 54.4838 120.154 54.9395C120.578 55.3952 121.172 55.6231 121.938 55.6231C122.745 55.6231 123.542 55.4545 124.33 55.1172V56.1289C123.929 56.3021 123.549 56.4252 123.189 56.4981C122.833 56.5756 122.403 56.6143 121.897 56.6143ZM121.589 49.7989C120.988 49.7989 120.507 49.9948 120.147 50.3867C119.791 50.7787 119.582 51.321 119.518 52.0137H123.435C123.435 51.2982 123.275 50.7513 122.956 50.3731C122.637 49.9903 122.182 49.7989 121.589 49.7989ZM131.566 56.4776V51.6309C131.566 51.0202 131.427 50.5645 131.149 50.2637C130.871 49.9629 130.436 49.8125 129.843 49.8125C129.06 49.8125 128.485 50.0244 128.121 50.4483C127.756 50.8721 127.574 51.5716 127.574 52.5469V56.4776H126.439V48.9854H127.362L127.547 50.0108H127.601C127.834 49.6416 128.16 49.3568 128.579 49.1563C128.998 48.9512 129.465 48.8487 129.98 48.8487C130.883 48.8487 131.562 49.0674 132.017 49.5049C132.473 49.9379 132.701 50.6328 132.701 51.5899V56.4776H131.566ZM139.984 55.4727H139.923C139.399 56.2338 138.615 56.6143 137.571 56.6143C136.591 56.6143 135.828 56.2793 135.281 55.6094C134.739 54.9395 134.468 53.987 134.468 52.752C134.468 51.517 134.741 50.5576 135.288 49.8741C135.835 49.1905 136.596 48.8487 137.571 48.8487C138.588 48.8487 139.367 49.2178 139.909 49.9561H139.998L139.95 49.416L139.923 48.8897V45.8409H141.058V56.4776H140.135L139.984 55.4727ZM137.715 55.6641C138.49 55.6641 139.05 55.4545 139.396 55.0352C139.747 54.6114 139.923 53.93 139.923 52.9912V52.752C139.923 51.6901 139.745 50.9336 139.39 50.4825C139.039 50.0267 138.476 49.7989 137.701 49.7989C137.036 49.7989 136.525 50.0586 136.17 50.5782C135.819 51.0931 135.644 51.8223 135.644 52.7657C135.644 53.7227 135.819 54.445 136.17 54.9326C136.521 55.4203 137.036 55.6641 137.715 55.6641ZM146.482 56.6143C145.374 56.6143 144.499 56.277 143.857 55.6026C143.219 54.9281 142.9 53.9916 142.9 52.793C142.9 51.5853 143.196 50.626 143.788 49.9151C144.385 49.2041 145.185 48.8487 146.188 48.8487C147.127 48.8487 147.869 49.1586 148.416 49.7784C148.963 50.3936 149.237 51.2071 149.237 52.2188V52.9366H144.075C144.098 53.8161 144.319 54.4838 144.739 54.9395C145.162 55.3952 145.757 55.6231 146.523 55.6231C147.329 55.6231 148.127 55.4545 148.915 55.1172V56.1289C148.514 56.3021 148.134 56.4252 147.774 56.4981C147.418 56.5756 146.988 56.6143 146.482 56.6143ZM146.174 49.7989C145.573 49.7989 145.092 49.9948 144.732 50.3867C144.376 50.7787 144.167 51.321 144.103 52.0137H148.02C148.02 51.2982 147.86 50.7513 147.541 50.3731C147.222 49.9903 146.767 49.7989 146.174 49.7989ZM156.124 55.4727H156.062C155.538 56.2338 154.754 56.6143 153.711 56.6143C152.731 56.6143 151.967 56.2793 151.421 55.6094C150.878 54.9395 150.607 53.987 150.607 52.752C150.607 51.517 150.88 50.5576 151.427 49.8741C151.974 49.1905 152.735 48.8487 153.711 48.8487C154.727 48.8487 155.506 49.2178 156.048 49.9561H156.137L156.089 49.416L156.062 48.8897V45.8409H157.197V56.4776H156.274L156.124 55.4727ZM153.854 55.6641C154.629 55.6641 155.189 55.4545 155.536 55.0352C155.887 54.6114 156.062 53.93 156.062 52.9912V52.752C156.062 51.6901 155.884 50.9336 155.529 50.4825C155.178 50.0267 154.615 49.7989 153.84 49.7989C153.175 49.7989 152.665 50.0586 152.309 50.5782C151.958 51.0931 151.783 51.8223 151.783 52.7657C151.783 53.7227 151.958 54.445 152.309 54.9326C152.66 55.4203 153.175 55.6641 153.854 55.6641ZM164.073 56.4776H162.939V45.8409H164.073V56.4776ZM172.793 52.7246C172.793 53.946 172.485 54.9007 171.87 55.5889C171.254 56.2725 170.404 56.6143 169.32 56.6143C168.65 56.6143 168.055 56.4571 167.536 56.1426C167.016 55.8282 166.615 55.377 166.333 54.7891C166.05 54.2012 165.909 53.5131 165.909 52.7246C165.909 51.5033 166.214 50.5531 166.825 49.8741C167.435 49.1905 168.283 48.8487 169.368 48.8487C170.416 48.8487 171.248 49.1973 171.863 49.8946C172.483 50.5918 172.793 51.5352 172.793 52.7246ZM167.084 52.7246C167.084 53.6817 167.276 54.4108 167.659 54.9121C168.042 55.4134 168.604 55.6641 169.347 55.6641C170.09 55.6641 170.653 55.4157 171.036 54.919C171.423 54.4177 171.617 53.6862 171.617 52.7246C171.617 51.7722 171.423 51.0498 171.036 50.5576C170.653 50.0609 170.085 49.8125 169.334 49.8125C168.591 49.8125 168.03 50.0563 167.652 50.544C167.274 51.0316 167.084 51.7585 167.084 52.7246ZM180.766 48.9854V49.7032L179.379 49.8672C179.506 50.0267 179.62 50.2364 179.721 50.4961C179.821 50.7513 179.871 51.0407 179.871 51.3643C179.871 52.098 179.62 52.6836 179.119 53.1211C178.618 53.5586 177.93 53.7774 177.055 53.7774C176.831 53.7774 176.622 53.7591 176.426 53.7227C175.943 53.9779 175.701 54.2992 175.701 54.6866C175.701 54.8916 175.785 55.0443 175.954 55.1446C176.123 55.2403 176.412 55.2881 176.822 55.2881H178.148C178.959 55.2881 179.582 55.459 180.014 55.8008C180.452 56.1426 180.671 56.6394 180.671 57.291C180.671 58.1205 180.338 58.7517 179.673 59.1846C179.007 59.6221 178.037 59.8409 176.761 59.8409C175.781 59.8409 175.024 59.6586 174.491 59.294C173.962 58.9294 173.698 58.4144 173.698 57.7491C173.698 57.2933 173.844 56.8991 174.136 56.5664C174.427 56.2338 174.837 56.0082 175.366 55.8897C175.175 55.8031 175.013 55.6687 174.881 55.4864C174.753 55.3041 174.689 55.0922 174.689 54.8506C174.689 54.5772 174.762 54.3379 174.908 54.1328C175.054 53.9278 175.284 53.7295 175.598 53.5381C175.211 53.3786 174.894 53.1075 174.648 52.7246C174.407 52.3418 174.286 51.9043 174.286 51.4121C174.286 50.5918 174.532 49.9606 175.024 49.5186C175.516 49.072 176.214 48.8487 177.116 48.8487C177.508 48.8487 177.861 48.8942 178.176 48.9854H180.766ZM174.792 57.7354C174.792 58.141 174.963 58.4486 175.305 58.6582C175.646 58.8679 176.136 58.9727 176.774 58.9727C177.727 58.9727 178.431 58.8291 178.887 58.542C179.347 58.2595 179.577 57.8744 179.577 57.3867C179.577 56.9812 179.452 56.6986 179.201 56.5391C178.95 56.3841 178.479 56.3067 177.786 56.3067H176.426C175.911 56.3067 175.51 56.4297 175.222 56.6758C174.935 56.9219 174.792 57.2751 174.792 57.7354ZM175.407 51.3848C175.407 51.9089 175.555 52.3054 175.851 52.5742C176.148 52.8431 176.56 52.9776 177.089 52.9776C178.196 52.9776 178.75 52.4398 178.75 51.3643C178.75 50.2386 178.189 49.6758 177.068 49.6758C176.535 49.6758 176.125 49.8194 175.838 50.1065C175.551 50.3936 175.407 50.8197 175.407 51.3848ZM188.617 52.7246C188.617 53.946 188.31 54.9007 187.694 55.5889C187.079 56.2725 186.229 56.6143 185.145 56.6143C184.475 56.6143 183.88 56.4571 183.36 56.1426C182.841 55.8282 182.44 55.377 182.157 54.7891C181.875 54.2012 181.734 53.5131 181.734 52.7246C181.734 51.5033 182.039 50.5531 182.65 49.8741C183.26 49.1905 184.108 48.8487 185.193 48.8487C186.241 48.8487 187.072 49.1973 187.688 49.8946C188.307 50.5918 188.617 51.5352 188.617 52.7246ZM182.909 52.7246C182.909 53.6817 183.101 54.4108 183.484 54.9121C183.866 55.4134 184.429 55.6641 185.172 55.6641C185.915 55.6641 186.478 55.4157 186.86 54.919C187.248 54.4177 187.442 53.6862 187.442 52.7246C187.442 51.7722 187.248 51.0498 186.86 50.5576C186.478 50.0609 185.91 49.8125 185.158 49.8125C184.415 49.8125 183.855 50.0563 183.477 50.544C183.098 51.0316 182.909 51.7585 182.909 52.7246ZM84.2626 75.4336C84.2626 76.1309 84.0028 76.6687 83.4833 77.0469C82.9637 77.4252 82.2346 77.6143 81.2958 77.6143C80.3023 77.6143 79.5275 77.4571 78.9716 77.1426V76.0899C79.3316 76.2722 79.7167 76.4157 80.1268 76.5205C80.5415 76.6254 80.9403 76.6778 81.3231 76.6778C81.9156 76.6778 82.3713 76.5843 82.6903 76.3975C83.0093 76.2061 83.1688 75.9167 83.1688 75.5293C83.1688 75.2377 83.0412 74.9893 82.786 74.7842C82.5354 74.5746 82.0432 74.3285 81.3094 74.0459C80.6122 73.7862 80.1154 73.5606 79.8192 73.3692C79.5275 73.1732 79.3088 72.9522 79.163 72.7061C79.0217 72.46 78.951 72.166 78.951 71.8242C78.951 71.2136 79.1994 70.7328 79.6962 70.3819C80.1929 70.0264 80.8742 69.8487 81.7401 69.8487C82.5467 69.8487 83.3352 70.0127 84.1053 70.3409L83.702 71.2637C82.9501 70.9538 82.2688 70.7989 81.6581 70.7989C81.1203 70.7989 80.7147 70.8832 80.4413 71.0518C80.1678 71.2204 80.0311 71.4528 80.0311 71.7491C80.0311 71.9496 80.0813 72.1205 80.1815 72.2617C80.2863 72.403 80.4527 72.5375 80.6805 72.6651C80.9084 72.7927 81.3459 72.9772 81.993 73.2188C82.8817 73.5423 83.481 73.8682 83.7909 74.1963C84.1053 74.5244 84.2626 74.9369 84.2626 75.4336ZM89.4474 77.6143C88.9598 77.6143 88.5132 77.5254 88.1076 77.3477C87.7066 77.1654 87.3693 76.8874 87.0959 76.5137H87.0138C87.0685 76.9512 87.0959 77.3659 87.0959 77.7578V80.8409H85.9611V69.9854H86.884L87.0412 71.0108H87.0959C87.3875 70.6006 87.7271 70.3044 88.1144 70.1221C88.5018 69.9398 88.9461 69.8487 89.4474 69.8487C90.4409 69.8487 91.2066 70.1882 91.7443 70.8672C92.2866 71.5463 92.5578 72.4987 92.5578 73.7246C92.5578 74.9551 92.2821 75.9121 91.7306 76.5957C91.1838 77.2748 90.4227 77.6143 89.4474 77.6143ZM89.2834 70.8125C88.5177 70.8125 87.964 71.0244 87.6222 71.4483C87.2804 71.8721 87.105 72.5466 87.0959 73.4717V73.7246C87.0959 74.7774 87.2713 75.5316 87.6222 75.9873C87.9732 76.4385 88.536 76.6641 89.3107 76.6641C89.9579 76.6641 90.4637 76.402 90.8283 75.878C91.1974 75.3539 91.382 74.6315 91.382 73.711C91.382 72.7767 91.1974 72.0612 90.8283 71.5645C90.4637 71.0632 89.9487 70.8125 89.2834 70.8125ZM97.5581 77.6143C96.4507 77.6143 95.5757 77.277 94.9331 76.6026C94.2951 75.9281 93.9761 74.9916 93.9761 73.793C93.9761 72.5853 94.2723 71.626 94.8647 70.9151C95.4617 70.2041 96.2615 69.8487 97.2641 69.8487C98.2029 69.8487 98.9458 70.1586 99.4927 70.7784C100.04 71.3936 100.313 72.2071 100.313 73.2188V73.9366H95.1518C95.1746 74.8161 95.3957 75.4838 95.8149 75.9395C96.2388 76.3952 96.8335 76.6231 97.5991 76.6231C98.4057 76.6231 99.2033 76.4545 99.9917 76.1172V77.1289C99.5906 77.3021 99.2101 77.4252 98.8501 77.4981C98.4946 77.5756 98.0639 77.6143 97.5581 77.6143ZM97.2505 70.7989C96.6489 70.7989 96.1681 70.9948 95.8081 71.3867C95.4526 71.7787 95.243 72.321 95.1792 73.0137H99.0962C99.0962 72.2982 98.9367 71.7513 98.6177 71.3731C98.2986 70.9903 97.8429 70.7989 97.2505 70.7989ZM105.095 77.6143C104.01 77.6143 103.169 77.2816 102.572 76.6162C101.98 75.9463 101.683 75.0007 101.683 73.7793C101.683 72.5261 101.984 71.5576 102.586 70.8741C103.192 70.1905 104.053 69.8487 105.17 69.8487C105.53 69.8487 105.89 69.8874 106.25 69.9649C106.61 70.0423 106.892 70.1335 107.097 70.2383L106.749 71.2022C106.498 71.1019 106.225 71.0199 105.928 70.9561C105.632 70.8877 105.37 70.8535 105.142 70.8535C103.62 70.8535 102.859 71.8242 102.859 73.7657C102.859 74.6862 103.044 75.3926 103.413 75.8848C103.787 76.377 104.338 76.6231 105.067 76.6231C105.692 76.6231 106.332 76.4886 106.988 76.2198V77.2246C106.487 77.4844 105.856 77.6143 105.095 77.6143ZM109.753 77.4776H108.618V69.9854H109.753V77.4776ZM108.523 67.9551C108.523 67.6953 108.586 67.5062 108.714 67.3877C108.842 67.2647 109.001 67.2032 109.192 67.2032C109.375 67.2032 109.532 67.2647 109.664 67.3877C109.796 67.5108 109.862 67.6999 109.862 67.9551C109.862 68.2103 109.796 68.4017 109.664 68.5293C109.532 68.6524 109.375 68.7139 109.192 68.7139C109.001 68.7139 108.842 68.6524 108.714 68.5293C108.586 68.4017 108.523 68.2103 108.523 67.9551ZM115.382 70.8672H113.475V77.4776H112.34V70.8672H111V70.3545L112.34 69.9444V69.5274C112.34 67.6862 113.145 66.7657 114.753 66.7657C115.15 66.7657 115.615 66.8454 116.148 67.0049L115.854 67.9141C115.416 67.7728 115.043 67.7022 114.733 67.7022C114.304 67.7022 113.988 67.8457 113.783 68.1328C113.578 68.4154 113.475 68.8711 113.475 69.5V69.9854H115.382V70.8672ZM117.884 77.4776H116.749V69.9854H117.884V77.4776ZM116.654 67.9551C116.654 67.6953 116.718 67.5062 116.845 67.3877C116.973 67.2647 117.132 67.2032 117.324 67.2032C117.506 67.2032 117.663 67.2647 117.795 67.3877C117.927 67.5108 117.994 67.6999 117.994 67.9551C117.994 68.2103 117.927 68.4017 117.795 68.5293C117.663 68.6524 117.506 68.7139 117.324 68.7139C117.132 68.7139 116.973 68.6524 116.845 68.5293C116.718 68.4017 116.654 68.2103 116.654 67.9551ZM123.131 77.6143C122.046 77.6143 121.205 77.2816 120.608 76.6162C120.016 75.9463 119.719 75.0007 119.719 73.7793C119.719 72.5261 120.02 71.5576 120.622 70.8741C121.228 70.1905 122.089 69.8487 123.206 69.8487C123.566 69.8487 123.926 69.8874 124.286 69.9649C124.646 70.0423 124.928 70.1335 125.133 70.2383L124.785 71.2022C124.534 71.1019 124.261 71.0199 123.965 70.9561C123.668 70.8877 123.406 70.8535 123.178 70.8535C121.656 70.8535 120.895 71.8242 120.895 73.7657C120.895 74.6862 121.08 75.3926 121.449 75.8848C121.823 76.377 122.374 76.6231 123.103 76.6231C123.728 76.6231 124.368 76.4886 125.024 76.2198V77.2246C124.523 77.4844 123.892 77.6143 123.131 77.6143ZM131.262 77.4776L131.036 76.4112H130.981C130.608 76.8806 130.234 77.1996 129.86 77.3682C129.491 77.5323 129.029 77.6143 128.473 77.6143C127.73 77.6143 127.146 77.4229 126.723 77.0401C126.303 76.6573 126.094 76.1127 126.094 75.4063C126.094 73.8933 127.304 73.1003 129.724 73.0274L130.995 72.9864V72.5215C130.995 71.9336 130.868 71.5007 130.612 71.2227C130.362 70.9401 129.958 70.7989 129.402 70.7989C128.778 70.7989 128.072 70.9903 127.283 71.3731L126.935 70.5049C127.304 70.3044 127.707 70.1472 128.145 70.0332C128.587 69.9193 129.029 69.8623 129.471 69.8623C130.364 69.8623 131.025 70.0606 131.453 70.4571C131.886 70.8535 132.103 71.4893 132.103 72.3643V77.4776H131.262ZM128.698 76.6778C129.405 76.6778 129.958 76.4841 130.359 76.0967C130.765 75.7093 130.968 75.167 130.968 74.4698V73.793L129.833 73.8409C128.931 73.8728 128.279 74.014 127.878 74.2647C127.481 74.5108 127.283 74.8959 127.283 75.42C127.283 75.8301 127.406 76.1423 127.652 76.3565C127.903 76.5707 128.252 76.6778 128.698 76.6778ZM136.713 76.6778C136.914 76.6778 137.107 76.6641 137.294 76.6367C137.481 76.6048 137.629 76.5729 137.739 76.541V77.4092C137.616 77.4685 137.433 77.5163 137.192 77.5528C136.955 77.5938 136.741 77.6143 136.549 77.6143C135.1 77.6143 134.375 76.8509 134.375 75.3242V70.8672H133.302V70.3203L134.375 69.8487L134.854 68.2491H135.51V69.9854H137.684V70.8672H135.51V75.2764C135.51 75.7276 135.617 76.0739 135.831 76.3155C136.046 76.557 136.339 76.6778 136.713 76.6778ZM140.223 77.4776H139.088V69.9854H140.223V77.4776ZM138.993 67.9551C138.993 67.6953 139.057 67.5062 139.184 67.3877C139.312 67.2647 139.471 67.2032 139.663 67.2032C139.845 67.2032 140.002 67.2647 140.134 67.3877C140.267 67.5108 140.333 67.6999 140.333 67.9551C140.333 68.2103 140.267 68.4017 140.134 68.5293C140.002 68.6524 139.845 68.7139 139.663 68.7139C139.471 68.7139 139.312 68.6524 139.184 68.5293C139.057 68.4017 138.993 68.2103 138.993 67.9551ZM148.942 73.7246C148.942 74.946 148.635 75.9007 148.019 76.5889C147.404 77.2725 146.554 77.6143 145.47 77.6143C144.8 77.6143 144.205 77.4571 143.685 77.1426C143.166 76.8282 142.765 76.377 142.482 75.7891C142.2 75.2012 142.059 74.5131 142.059 73.7246C142.059 72.5033 142.364 71.5531 142.975 70.8741C143.585 70.1905 144.433 69.8487 145.517 69.8487C146.566 69.8487 147.397 70.1973 148.013 70.8946C148.632 71.5918 148.942 72.5352 148.942 73.7246ZM143.234 73.7246C143.234 74.6817 143.426 75.4108 143.809 75.9121C144.191 76.4134 144.754 76.6641 145.497 76.6641C146.24 76.6641 146.803 76.4157 147.185 75.919C147.573 75.4177 147.767 74.6862 147.767 73.7246C147.767 72.7722 147.573 72.0498 147.185 71.5576C146.803 71.0609 146.235 70.8125 145.483 70.8125C144.74 70.8125 144.18 71.0563 143.802 71.544C143.423 72.0316 143.234 72.7585 143.234 73.7246ZM155.911 77.4776V72.6309C155.911 72.0202 155.772 71.5645 155.494 71.2637C155.216 70.9629 154.781 70.8125 154.189 70.8125C153.405 70.8125 152.831 71.0244 152.466 71.4483C152.101 71.8721 151.919 72.5716 151.919 73.5469V77.4776H150.784V69.9854H151.707L151.892 71.0108H151.947C152.179 70.6416 152.505 70.3568 152.924 70.1563C153.343 69.9512 153.81 69.8487 154.325 69.8487C155.228 69.8487 155.907 70.0674 156.363 70.5049C156.818 70.9379 157.046 71.6328 157.046 72.5899V77.4776H155.911ZM164.063 75.4336C164.063 76.1309 163.803 76.6687 163.284 77.0469C162.764 77.4252 162.035 77.6143 161.096 77.6143C160.103 77.6143 159.328 77.4571 158.772 77.1426V76.0899C159.132 76.2722 159.517 76.4157 159.927 76.5205C160.342 76.6254 160.741 76.6778 161.124 76.6778C161.716 76.6778 162.172 76.5843 162.491 76.3975C162.81 76.2061 162.969 75.9167 162.969 75.5293C162.969 75.2377 162.842 74.9893 162.586 74.7842C162.336 74.5746 161.844 74.3285 161.11 74.0459C160.413 73.7862 159.916 73.5606 159.62 73.3692C159.328 73.1732 159.109 72.9522 158.963 72.7061C158.822 72.46 158.751 72.166 158.751 71.8242C158.751 71.2136 159 70.7328 159.497 70.3819C159.993 70.0264 160.675 69.8487 161.541 69.8487C162.347 69.8487 163.136 70.0127 163.906 70.3409L163.502 71.2637C162.751 70.9538 162.069 70.7989 161.459 70.7989C160.921 70.7989 160.515 70.8832 160.242 71.0518C159.968 71.2204 159.832 71.4528 159.832 71.7491C159.832 71.9496 159.882 72.1205 159.982 72.2617C160.087 72.403 160.253 72.5375 160.481 72.6651C160.709 72.7927 161.146 72.9772 161.793 73.2188C162.682 73.5423 163.281 73.8682 163.591 74.1963C163.906 74.5244 164.063 74.9369 164.063 75.4336ZM165.597 76.753C165.597 76.4476 165.666 76.2175 165.803 76.0625C165.944 75.903 166.144 75.8233 166.404 75.8233C166.668 75.8233 166.874 75.903 167.019 76.0625C167.17 76.2175 167.245 76.4476 167.245 76.753C167.245 77.0492 167.17 77.277 167.019 77.4366C166.869 77.5961 166.664 77.6758 166.404 77.6758C166.172 77.6758 165.978 77.6052 165.823 77.4639C165.673 77.3181 165.597 77.0811 165.597 76.753ZM165.597 70.7168C165.597 70.1016 165.866 69.794 166.404 69.794C166.965 69.794 167.245 70.1016 167.245 70.7168C167.245 71.0131 167.17 71.2409 167.019 71.4004C166.869 71.5599 166.664 71.6397 166.404 71.6397C166.172 71.6397 165.978 71.569 165.823 71.4278C165.673 71.2819 165.597 71.045 165.597 70.7168ZM82.5381 92.3731C83.5908 92.3731 84.418 92.6351 85.0196 93.1592C85.6257 93.6787 85.9287 94.392 85.9287 95.2989C85.9287 96.3334 85.5983 97.1446 84.9375 97.7325C84.2813 98.3203 83.3744 98.6143 82.2168 98.6143C81.0912 98.6143 80.2321 98.4343 79.6397 98.0742V96.9805C79.9587 97.1856 80.3552 97.3474 80.8291 97.4659C81.3031 97.5798 81.7702 97.6367 82.2305 97.6367C83.0326 97.6367 83.6546 97.4476 84.0967 97.0694C84.5433 96.6911 84.7666 96.1442 84.7666 95.4287C84.7666 94.0342 83.9121 93.3369 82.2031 93.3369C81.7702 93.3369 81.1914 93.403 80.4668 93.5352L79.8789 93.1592L80.2549 88.4834H85.2246V89.5293H81.2256L80.9727 92.5303C81.4968 92.4255 82.0186 92.3731 82.5381 92.3731ZM93.8958 93.4668C93.8958 95.194 93.6224 96.4838 93.0755 97.336C92.5332 98.1882 91.7015 98.6143 90.5804 98.6143C89.5049 98.6143 88.6868 98.1791 88.1263 97.3086C87.5658 96.4336 87.2855 95.153 87.2855 93.4668C87.2855 91.7259 87.5566 90.4339 88.099 89.5909C88.6413 88.7478 89.4684 88.3262 90.5804 88.3262C91.665 88.3262 92.4876 88.766 93.0482 89.6455C93.6133 90.5251 93.8958 91.7989 93.8958 93.4668ZM88.4339 93.4668C88.4339 94.9206 88.6048 95.9802 88.9466 96.6455C89.2884 97.3063 89.833 97.6367 90.5804 97.6367C91.3369 97.6367 91.8838 97.3018 92.221 96.6319C92.5628 95.9574 92.7337 94.9024 92.7337 93.4668C92.7337 92.0313 92.5628 90.9808 92.221 90.3155C91.8838 89.6455 91.3369 89.3106 90.5804 89.3106C89.833 89.3106 89.2884 89.641 88.9466 90.3018C88.6048 90.958 88.4339 92.0131 88.4339 93.4668ZM101.754 93.4668C101.754 95.194 101.48 96.4838 100.933 97.336C100.391 98.1882 99.5592 98.6143 98.4381 98.6143C97.3626 98.6143 96.5446 98.1791 95.984 97.3086C95.4235 96.4336 95.1432 95.153 95.1432 93.4668C95.1432 91.7259 95.4144 90.4339 95.9567 89.5909C96.499 88.7478 97.3261 88.3262 98.4381 88.3262C99.5228 88.3262 100.345 88.766 100.906 89.6455C101.471 90.5251 101.754 91.7989 101.754 93.4668ZM96.2916 93.4668C96.2916 94.9206 96.4625 95.9802 96.8043 96.6455C97.1461 97.3063 97.6907 97.6367 98.4381 97.6367C99.1946 97.6367 99.7415 97.3018 100.079 96.6319C100.421 95.9574 100.591 94.9024 100.591 93.4668C100.591 92.0313 100.421 90.9808 100.079 90.3155C99.7415 89.6455 99.1946 89.3106 98.4381 89.3106C97.6907 89.3106 97.1461 89.641 96.8043 90.3018C96.4625 90.958 96.2916 92.0131 96.2916 93.4668ZM106.993 98.6143C106.505 98.6143 106.059 98.5254 105.653 98.3477C105.252 98.1654 104.915 97.8874 104.642 97.5137H104.56C104.614 97.9512 104.642 98.3659 104.642 98.7578V101.841H103.507V90.9854H104.43L104.587 92.0108H104.642C104.933 91.6006 105.273 91.3044 105.66 91.1221C106.047 90.9398 106.492 90.8487 106.993 90.8487C107.987 90.8487 108.752 91.1882 109.29 91.8672C109.832 92.5463 110.103 93.4987 110.103 94.7246C110.103 95.9551 109.828 96.9121 109.276 97.5957C108.729 98.2748 107.968 98.6143 106.993 98.6143ZM106.829 91.8125C106.063 91.8125 105.51 92.0244 105.168 92.4483C104.826 92.8721 104.651 93.5466 104.642 94.4717V94.7246C104.642 95.7774 104.817 96.5316 105.168 96.9873C105.519 97.4385 106.082 97.6641 106.856 97.6641C107.504 97.6641 108.009 97.402 108.374 96.878C108.743 96.3539 108.928 95.6315 108.928 94.711C108.928 93.7767 108.743 93.0612 108.374 92.5645C108.009 92.0632 107.494 91.8125 106.829 91.8125ZM113.743 94.6426L111.139 90.9854H112.431L114.406 93.8565L116.375 90.9854H117.654L115.049 94.6426L117.79 98.4776H116.505L114.406 95.4424L112.287 98.4776H111.002L113.743 94.6426ZM124.414 94.6426L121.809 90.9854H123.101L125.077 93.8565L127.046 90.9854H128.324L125.72 94.6426L128.461 98.4776H127.176L125.077 95.4424L122.958 98.4776H121.673L124.414 94.6426ZM138.954 90.835C138.954 91.473 138.774 91.9948 138.414 92.4004C138.058 92.806 137.552 93.0772 136.896 93.2139V93.2686C137.698 93.3688 138.293 93.6241 138.68 94.0342C139.067 94.4444 139.261 94.9821 139.261 95.6475C139.261 96.6 138.931 97.3337 138.27 97.8487C137.609 98.3591 136.67 98.6143 135.454 98.6143C134.925 98.6143 134.44 98.5733 133.998 98.4912C133.56 98.4138 133.134 98.2748 132.719 98.0742V96.9942C133.152 97.2084 133.612 97.3724 134.1 97.4864C134.592 97.5957 135.057 97.6504 135.495 97.6504C137.222 97.6504 138.085 96.9737 138.085 95.6201C138.085 94.4079 137.133 93.8018 135.228 93.8018H134.244V92.8242H135.242C136.021 92.8242 136.638 92.6534 137.094 92.3116C137.55 91.9652 137.778 91.4867 137.778 90.876C137.778 90.3884 137.609 90.0056 137.272 89.7276C136.939 89.4496 136.486 89.3106 135.912 89.3106C135.474 89.3106 135.062 89.3698 134.674 89.4883C134.287 89.6068 133.845 89.8256 133.348 90.1446L132.774 89.3789C133.184 89.0554 133.656 88.8024 134.189 88.6201C134.727 88.4333 135.292 88.3399 135.884 88.3399C136.855 88.3399 137.609 88.5632 138.147 89.0098C138.685 89.4519 138.954 90.0603 138.954 90.835ZM147.242 93.4668C147.242 95.194 146.969 96.4838 146.422 97.336C145.879 98.1882 145.048 98.6143 143.927 98.6143C142.851 98.6143 142.033 98.1791 141.472 97.3086C140.912 96.4336 140.632 95.153 140.632 93.4668C140.632 91.7259 140.903 90.4339 141.445 89.5909C141.987 88.7478 142.815 88.3262 143.927 88.3262C145.011 88.3262 145.834 88.766 146.394 89.6455C146.959 90.5251 147.242 91.7989 147.242 93.4668ZM141.78 93.4668C141.78 94.9206 141.951 95.9802 142.293 96.6455C142.635 97.3063 143.179 97.6367 143.927 97.6367C144.683 97.6367 145.23 97.3018 145.567 96.6319C145.909 95.9574 146.08 94.9024 146.08 93.4668C146.08 92.0313 145.909 90.9808 145.567 90.3155C145.23 89.6455 144.683 89.3106 143.927 89.3106C143.179 89.3106 142.635 89.641 142.293 90.3018C141.951 90.958 141.78 92.0131 141.78 93.4668ZM155.1 93.4668C155.1 95.194 154.826 96.4838 154.279 97.336C153.737 98.1882 152.905 98.6143 151.784 98.6143C150.709 98.6143 149.891 98.1791 149.33 97.3086C148.77 96.4336 148.489 95.153 148.489 93.4668C148.489 91.7259 148.76 90.4339 149.303 89.5909C149.845 88.7478 150.672 88.3262 151.784 88.3262C152.869 88.3262 153.691 88.766 154.252 89.6455C154.817 90.5251 155.1 91.7989 155.1 93.4668ZM149.638 93.4668C149.638 94.9206 149.809 95.9802 150.15 96.6455C150.492 97.3063 151.037 97.6367 151.784 97.6367C152.541 97.6367 153.088 97.3018 153.425 96.6319C153.767 95.9574 153.938 94.9024 153.938 93.4668C153.938 92.0313 153.767 90.9808 153.425 90.3155C153.088 89.6455 152.541 89.3106 151.784 89.3106C151.037 89.3106 150.492 89.641 150.15 90.3018C149.809 90.958 149.638 92.0131 149.638 93.4668ZM160.339 98.6143C159.852 98.6143 159.405 98.5254 158.999 98.3477C158.598 98.1654 158.261 97.8874 157.988 97.5137H157.906C157.96 97.9512 157.988 98.3659 157.988 98.7578V101.841H156.853V90.9854H157.776L157.933 92.0108H157.988C158.279 91.6006 158.619 91.3044 159.006 91.1221C159.394 90.9398 159.838 90.8487 160.339 90.8487C161.333 90.8487 162.098 91.1882 162.636 91.8672C163.178 92.5463 163.45 93.4987 163.45 94.7246C163.45 95.9551 163.174 96.9121 162.622 97.5957C162.076 98.2748 161.314 98.6143 160.339 98.6143ZM160.175 91.8125C159.41 91.8125 158.856 92.0244 158.514 92.4483C158.172 92.8721 157.997 93.5466 157.988 94.4717V94.7246C157.988 95.7774 158.163 96.5316 158.514 96.9873C158.865 97.4385 159.428 97.6641 160.203 97.6641C160.85 97.6641 161.356 97.402 161.72 96.878C162.089 96.3539 162.274 95.6315 162.274 94.711C162.274 93.7767 162.089 93.0612 161.72 92.5645C161.356 92.0632 160.841 91.8125 160.175 91.8125ZM167.09 94.6426L164.485 90.9854H165.777L167.753 93.8565L169.721 90.9854H171L168.395 94.6426L171.136 98.4776H169.851L167.753 95.4424L165.633 98.4776H164.348L167.09 94.6426ZM74.6649 118.678C74.8654 118.678 75.0591 118.664 75.246 118.637C75.4328 118.605 75.5809 118.573 75.6903 118.541V119.409C75.5673 119.468 75.385 119.516 75.1434 119.553C74.9064 119.594 74.6923 119.614 74.5009 119.614C73.0516 119.614 72.327 118.851 72.327 117.324V112.867H71.2538V112.32L72.327 111.849L72.8055 110.249H73.4618V111.985H75.6356V112.867H73.4618V117.276C73.4618 117.728 73.5689 118.074 73.7831 118.315C73.9973 118.557 74.2912 118.678 74.6649 118.678ZM80.4582 111.849C80.7909 111.849 81.0894 111.876 81.3537 111.931L81.1965 112.983C80.8866 112.915 80.6131 112.881 80.3761 112.881C79.77 112.881 79.2505 113.127 78.8176 113.619C78.3892 114.111 78.175 114.724 78.175 115.458V119.478H77.0402V111.985H77.9767L78.1066 113.373H78.1613C78.4393 112.885 78.7743 112.509 79.1662 112.245C79.5581 111.981 79.9888 111.849 80.4582 111.849ZM87.2085 119.478L86.9829 118.411H86.9282C86.5545 118.881 86.1808 119.2 85.8071 119.368C85.438 119.532 84.9754 119.614 84.4194 119.614C83.6766 119.614 83.0932 119.423 82.6694 119.04C82.2501 118.657 82.0405 118.113 82.0405 117.406C82.0405 115.893 83.2505 115.1 85.6704 115.027L86.9419 114.986V114.522C86.9419 113.934 86.8143 113.501 86.5591 113.223C86.3084 112.94 85.9051 112.799 85.3491 112.799C84.7248 112.799 84.0184 112.99 83.23 113.373L82.8813 112.505C83.2505 112.304 83.6538 112.147 84.0913 112.033C84.5333 111.919 84.9754 111.862 85.4175 111.862C86.3107 111.862 86.9715 112.061 87.3999 112.457C87.8328 112.854 88.0493 113.489 88.0493 114.364V119.478H87.2085ZM84.645 118.678C85.3514 118.678 85.9051 118.484 86.3061 118.097C86.7117 117.709 86.9145 117.167 86.9145 116.47V115.793L85.7798 115.841C84.8774 115.873 84.2257 116.014 83.8247 116.265C83.4282 116.511 83.23 116.896 83.23 117.42C83.23 117.83 83.353 118.142 83.5991 118.356C83.8498 118.571 84.1984 118.678 84.645 118.678ZM95.367 119.478V114.631C95.367 114.02 95.228 113.564 94.95 113.264C94.672 112.963 94.2368 112.813 93.6443 112.813C92.8605 112.813 92.2862 113.024 91.9217 113.448C91.5571 113.872 91.3748 114.572 91.3748 115.547V119.478H90.24V111.985H91.1629L91.3474 113.011H91.4021C91.6346 112.642 91.9604 112.357 92.3797 112.156C92.7989 111.951 93.2661 111.849 93.781 111.849C94.6834 111.849 95.3624 112.067 95.8181 112.505C96.2739 112.938 96.5017 113.633 96.5017 114.59V119.478H95.367ZM103.519 117.434C103.519 118.131 103.259 118.669 102.739 119.047C102.22 119.425 101.491 119.614 100.552 119.614C99.5584 119.614 98.7836 119.457 98.2276 119.143V118.09C98.5876 118.272 98.9727 118.416 99.3829 118.521C99.7976 118.625 100.196 118.678 100.579 118.678C101.172 118.678 101.627 118.584 101.946 118.397C102.265 118.206 102.425 117.917 102.425 117.529C102.425 117.238 102.297 116.989 102.042 116.784C101.791 116.575 101.299 116.328 100.566 116.046C99.8682 115.786 99.3715 115.561 99.0753 115.369C98.7836 115.173 98.5649 114.952 98.419 114.706C98.2778 114.46 98.2071 114.166 98.2071 113.824C98.2071 113.214 98.4555 112.733 98.9522 112.382C99.449 112.026 100.13 111.849 100.996 111.849C101.803 111.849 102.591 112.013 103.361 112.341L102.958 113.264C102.206 112.954 101.525 112.799 100.914 112.799C100.376 112.799 99.9708 112.883 99.6973 113.052C99.4239 113.22 99.2872 113.453 99.2872 113.749C99.2872 113.95 99.3373 114.12 99.4376 114.262C99.5424 114.403 99.7087 114.537 99.9366 114.665C100.164 114.793 100.602 114.977 101.249 115.219C102.138 115.542 102.737 115.868 103.047 116.196C103.361 116.524 103.519 116.937 103.519 117.434ZM108.704 119.614C108.216 119.614 107.769 119.525 107.364 119.348C106.963 119.165 106.625 118.887 106.352 118.514H106.27C106.325 118.951 106.352 119.366 106.352 119.758V122.841H105.217V111.985H106.14L106.297 113.011H106.352C106.644 112.601 106.983 112.304 107.37 112.122C107.758 111.94 108.202 111.849 108.704 111.849C109.697 111.849 110.463 112.188 111 112.867C111.543 113.546 111.814 114.499 111.814 115.725C111.814 116.955 111.538 117.912 110.987 118.596C110.44 119.275 109.679 119.614 108.704 119.614ZM108.539 112.813C107.774 112.813 107.22 113.024 106.878 113.448C106.537 113.872 106.361 114.547 106.352 115.472V115.725C106.352 116.777 106.527 117.532 106.878 117.987C107.229 118.439 107.792 118.664 108.567 118.664C109.214 118.664 109.72 118.402 110.084 117.878C110.454 117.354 110.638 116.632 110.638 115.711C110.638 114.777 110.454 114.061 110.084 113.564C109.72 113.063 109.205 112.813 108.539 112.813ZM118.257 119.478L118.031 118.411H117.976C117.603 118.881 117.229 119.2 116.855 119.368C116.486 119.532 116.023 119.614 115.467 119.614C114.725 119.614 114.141 119.423 113.717 119.04C113.298 118.657 113.089 118.113 113.089 117.406C113.089 115.893 114.299 115.1 116.718 115.027L117.99 114.986V114.522C117.99 113.934 117.862 113.501 117.607 113.223C117.356 112.94 116.953 112.799 116.397 112.799C115.773 112.799 115.066 112.99 114.278 113.373L113.929 112.505C114.299 112.304 114.702 112.147 115.139 112.033C115.581 111.919 116.023 111.862 116.466 111.862C117.359 111.862 118.02 112.061 118.448 112.457C118.881 112.854 119.097 113.489 119.097 114.364V119.478H118.257ZM115.693 118.678C116.399 118.678 116.953 118.484 117.354 118.097C117.76 117.709 117.963 117.167 117.963 116.47V115.793L116.828 115.841C115.925 115.873 115.274 116.014 114.873 116.265C114.476 116.511 114.278 116.896 114.278 117.42C114.278 117.83 114.401 118.142 114.647 118.356C114.898 118.571 115.246 118.678 115.693 118.678ZM124.706 111.849C125.039 111.849 125.337 111.876 125.602 111.931L125.444 112.983C125.134 112.915 124.861 112.881 124.624 112.881C124.018 112.881 123.498 113.127 123.065 113.619C122.637 114.111 122.423 114.724 122.423 115.458V119.478H121.288V111.985H122.225L122.354 113.373H122.409C122.687 112.885 123.022 112.509 123.414 112.245C123.806 111.981 124.237 111.849 124.706 111.849ZM130.014 119.614C128.907 119.614 128.032 119.277 127.389 118.603C126.751 117.928 126.432 116.992 126.432 115.793C126.432 114.585 126.728 113.626 127.321 112.915C127.918 112.204 128.717 111.849 129.72 111.849C130.659 111.849 131.402 112.159 131.949 112.778C132.495 113.394 132.769 114.207 132.769 115.219V115.937H127.608C127.631 116.816 127.852 117.484 128.271 117.939C128.695 118.395 129.289 118.623 130.055 118.623C130.862 118.623 131.659 118.454 132.448 118.117V119.129C132.047 119.302 131.666 119.425 131.306 119.498C130.95 119.576 130.52 119.614 130.014 119.614ZM129.706 112.799C129.105 112.799 128.624 112.995 128.264 113.387C127.909 113.779 127.699 114.321 127.635 115.014H131.552C131.552 114.298 131.393 113.751 131.074 113.373C130.755 112.99 130.299 112.799 129.706 112.799ZM139.683 119.478V114.631C139.683 114.02 139.544 113.564 139.266 113.264C138.988 112.963 138.553 112.813 137.961 112.813C137.177 112.813 136.602 113.024 136.238 113.448C135.873 113.872 135.691 114.572 135.691 115.547V119.478H134.556V111.985H135.479L135.664 113.011H135.718C135.951 112.642 136.277 112.357 136.696 112.156C137.115 111.951 137.582 111.849 138.097 111.849C139 111.849 139.679 112.067 140.134 112.505C140.59 112.938 140.818 113.633 140.818 114.59V119.478H139.683ZM145.422 118.678C145.622 118.678 145.816 118.664 146.003 118.637C146.19 118.605 146.338 118.573 146.447 118.541V119.409C146.324 119.468 146.142 119.516 145.9 119.553C145.663 119.594 145.449 119.614 145.258 119.614C143.809 119.614 143.084 118.851 143.084 117.324V112.867H142.011V112.32L143.084 111.849L143.562 110.249H144.219V111.985H146.392V112.867H144.219V117.276C144.219 117.728 144.326 118.074 144.54 118.315C144.754 118.557 145.048 118.678 145.422 118.678ZM157.788 112.396C157.788 113.407 157.441 114.187 156.749 114.733C156.06 115.276 155.074 115.547 153.789 115.547H152.613V119.478H151.451V109.483H154.042C156.539 109.483 157.788 110.454 157.788 112.396ZM152.613 114.549H153.659C154.689 114.549 155.434 114.383 155.894 114.05C156.354 113.717 156.584 113.184 156.584 112.45C156.584 111.789 156.368 111.297 155.935 110.974C155.502 110.65 154.828 110.488 153.912 110.488H152.613V114.549ZM167.539 119.478H166.213L160.751 111.09H160.696C160.769 112.074 160.805 112.977 160.805 113.797V119.478H159.732V109.483H161.045L166.493 117.837H166.548C166.539 117.714 166.518 117.32 166.486 116.654C166.454 115.984 166.443 115.506 166.452 115.219V109.483H167.539V119.478ZM174.528 114.241H177.926V119.102C177.397 119.27 176.859 119.398 176.313 119.484C175.766 119.571 175.132 119.614 174.412 119.614C172.899 119.614 171.721 119.165 170.878 118.268C170.035 117.365 169.613 116.103 169.613 114.48C169.613 113.441 169.821 112.532 170.235 111.753C170.655 110.969 171.256 110.372 172.04 109.962C172.824 109.547 173.742 109.34 174.795 109.34C175.861 109.34 176.855 109.536 177.776 109.928L177.324 110.953C176.422 110.57 175.554 110.379 174.72 110.379C173.503 110.379 172.553 110.741 171.869 111.466C171.186 112.19 170.844 113.195 170.844 114.48C170.844 115.829 171.172 116.853 171.828 117.55C172.489 118.247 173.457 118.596 174.734 118.596C175.426 118.596 176.103 118.516 176.764 118.356V115.28H174.528V114.241Z" fill="#A8A8BD"/>
</svg>
